<svg xmlns="http://www.w3.org/2000/svg" width="170" height="41.875" viewBox="0 0 170 41.875">
  <g id="comit-logo_monocolor-logo-for-any-media-light" transform="translate(-31.532 -31.35)">
    <path id="Path_69967" data-name="Path 69967" d="M601.768,45.172V69.8a3.424,3.424,0,1,0,6.848,0V45.172a3.567,3.567,0,0,0-3.6-3.411c-1.89,0-3.249,2.148-3.249,4.038m.988-13.4a3.344,3.344,0,0,0-1.036,2.414,3.411,3.411,0,0,0,1.036,2.446,3.267,3.267,0,0,0,2.6,1.048,3.6,3.6,0,0,0,2.416-1.165,3.337,3.337,0,0,0,.908-2.329,3.292,3.292,0,0,0-1.036-2.462,3.455,3.455,0,0,0-2.494-1,3.273,3.273,0,0,0-2.4,1.052" transform="translate(-439.727)" fill="#fff"/>
    <path id="Path_69968" data-name="Path 69968" d="M663.04,44.125V44.8h6.02l-.078,15.025a30.4,30.4,0,0,0,.432,6.377,9.824,9.824,0,0,0,1.073,2.709,7.773,7.773,0,0,0,1.618,1.862,11.413,11.413,0,0,0,7.827,2.748,17.429,17.429,0,0,0,6.9-1.373,2.893,2.893,0,0,0,1.721-2.675h0a2.924,2.924,0,0,0-3.816-2.794,12.729,12.729,0,0,1-3.974.67q-4.932,0-4.928-5.935l.078-16.616h7.864a3.087,3.087,0,0,0,3.087-3.087,2.939,2.939,0,0,0-3.18-2.8h-7.864l-.153-7.175L663.04,44.125Z" transform="translate(-487.017 -0.301)" fill="#fff"/>
    <path id="Path_69969" data-name="Path 69969" d="M388.835,63.309a15.562,15.562,0,0,0-3.759.927,5.677,5.677,0,0,0-1.952,1.659c-.593.7-.412-2.785-.412-2.785h-6.4l.03,31.225a3.379,3.379,0,0,0,3.379,3.379h0a3.379,3.379,0,0,0,3.379-3.379v-16.6a11.311,11.311,0,0,1,.563-3.709,8.639,8.639,0,0,1,1.483-2.732,6.289,6.289,0,0,1,2.135-1.691,5.724,5.724,0,0,1,2.519-.586q3.082,0,4.24,1.789a9.863,9.863,0,0,1,1.155,5.3V94.339a3.379,3.379,0,0,0,6.759,0V78a12.024,12.024,0,0,1,1.542-6.638,5.519,5.519,0,0,1,4.981-2.343,6.186,6.186,0,0,1,3.082.65,4.092,4.092,0,0,1,1.689,1.856,8.073,8.073,0,0,1,.682,2.865q.117,1.658.119,3.677V94.339a3.379,3.379,0,0,0,6.759,0V74.486q0-6.116-2.7-8.72t-7.557-2.6a17.785,17.785,0,0,0-6.484,1.464,24.235,24.235,0,0,0-3.759,2.245,12.054,12.054,0,0,0-2.769-2.343,12.744,12.744,0,0,0-5.187-1.366c-.407,0-.764,0-1.117,0a17.177,17.177,0,0,0-2.4.151" transform="translate(-265.892 -24.493)" fill="#fff"/>
    <path id="Path_69970" data-name="Path 69970" d="M46.5,65.083h-.032c-17.3,2.455-20.553,25.6-4.542,32.657,11.488,4.956,20.192-3.979,26.445-12.6.4-.549.332-.508.746-1.05l-7.329-1.9L59.732,84.87c-3.56,4.263-7.514,7.672-12.365,7.157-7.873-.835-11.641-10.724-6.329-16.6,2.942-3.379,8.223-4.562,12.1-2.112a3.4,3.4,0,0,0,4.793-1.455c1.384-2.5-1.817-4.94-3.471-5.706a13.777,13.777,0,0,0-5.871-1.171c-.7,0-1.4.037-2.1.1" transform="translate(0 -25.935)" fill="#fff"/>
    <path id="Path_69971" data-name="Path 69971" d="M202.523,67.465s8.729,1.986,9.063,2.018a8.649,8.649,0,0,0,1.785.126,11.377,11.377,0,0,1,8.239,3.164,10.633,10.633,0,0,1,3.274,7.983,10.751,10.751,0,0,1-3.144,7.962,11,11,0,0,1-8.074,3.107,11.224,11.224,0,0,1-8.129-3.071,10.065,10.065,0,0,1-2.86-5.1l-4.656,6.2a16.97,16.97,0,0,0,2.7,3.313,17.651,17.651,0,0,0,12.726,4.91A18.683,18.683,0,0,0,226.5,93.244a15.92,15.92,0,0,0,5.187-12.156,16.994,16.994,0,0,0-5.114-12.525,17.65,17.65,0,0,0-12.836-4.983c-3.883,0-8.312,2.048-11.216,3.887" transform="translate(-128.395 -24.856)" fill="#fff"/>
    <path id="Path_69972" data-name="Path 69972" d="M181.9,97.623l-3.357,4.958,4.938,1.247a4.158,4.158,0,0,0,4.5-1.766l3.059-4.709-5.052-1.277a3.782,3.782,0,0,0-.954-.117,3.825,3.825,0,0,0-3.135,1.663" transform="translate(-113.372 -49.827)" fill="#fff"/>
  </g>
</svg>
