<svg xmlns="http://www.w3.org/2000/svg" xmlns:xlink="http://www.w3.org/1999/xlink" width="180" height="52.407" viewBox="0 0 180 52.407">
  <defs>
    <linearGradient id="linear-gradient" y1="0.652" x2="0.982" y2="0.577" gradientUnits="objectBoundingBox">
      <stop offset="0" stop-color="#6aaf7e"/>
      <stop offset="0.372" stop-color="#89ba70"/>
      <stop offset="0.411" stop-color="#88ba70"/>
      <stop offset="0.594" stop-color="#7b817a"/>
      <stop offset="0.773" stop-color="#645384"/>
      <stop offset="1" stop-color="#604785"/>
    </linearGradient>
  </defs>
  <path id="Union_2" data-name="Union 2" d="M17.925,52.407A17.314,17.314,0,0,1,11.017,50.9C-5.962,43.42-2.507,18.877,15.833,16.276l.033,0c.74-.069,1.483-.109,2.226-.109a14.6,14.6,0,0,1,6.225,1.243c1.753.812,5.148,3.4,3.68,6.051A3.608,3.608,0,0,1,22.914,25C18.8,22.4,13.2,23.654,10.079,27.238c-5.632,6.233-1.636,16.717,6.713,17.6,5.143.546,9.334-3.069,13.11-7.59l2.176-2.847,8.277,1.4q-.656.863-1.3,1.735c-5.311,7.328-12.3,14.869-21.13,14.87Zm120.44-4.191V17.885a3.74,3.74,0,0,1,7.479,0V48.216a3.74,3.74,0,1,1-7.479,0Zm23.675.739a8.536,8.536,0,0,1-1.767-2.034,10.776,10.776,0,0,1-1.171-2.96A33.177,33.177,0,0,1,158.629,37V20.227h-6.576v-.739L166.11,5.679v7.808H174.7a3.37,3.37,0,1,1,0,6.74H166.11v18.5q0,6.483,5.383,6.482a13.875,13.875,0,0,0,4.341-.731A3.194,3.194,0,0,1,180,47.535a3.158,3.158,0,0,1-1.878,2.92,19.027,19.027,0,0,1-7.532,1.5A12.466,12.466,0,0,1,162.04,48.955Zm-38.633-.69V30.491q0-2.2-.129-4.014a8.859,8.859,0,0,0-.746-3.128,4.47,4.47,0,0,0-1.845-2.025,6.749,6.749,0,0,0-3.366-.711q-3.756,0-5.44,2.559T110.2,30.421V48.265a3.69,3.69,0,0,1-7.381,0V28.359a10.776,10.776,0,0,0-1.263-5.794q-1.262-1.952-4.629-1.953a6.268,6.268,0,0,0-2.751.639A6.893,6.893,0,0,0,91.843,23.1a9.457,9.457,0,0,0-1.619,2.985,12.329,12.329,0,0,0-.615,4.051V48.265a3.691,3.691,0,0,1-7.382,0V15.21h6.993s-.231,2.75.416,1.991a6.2,6.2,0,0,1,2.133-1.812,16.866,16.866,0,0,1,4.1-1.013,18.7,18.7,0,0,1,2.616-.166c.383,0,.774.005,1.219.005a13.927,13.927,0,0,1,5.666,1.493,13.174,13.174,0,0,1,3.025,2.559,26.372,26.372,0,0,1,4.1-2.453,19.434,19.434,0,0,1,7.083-1.6q5.308,0,8.255,2.842t2.947,9.523V48.265a3.691,3.691,0,0,1-7.382,0ZM43.256,46.4a18,18,0,0,1-2.862-3.512l4.938-6.571a10.675,10.675,0,0,0,3.034,5.4,11.86,11.86,0,0,0,8.621,3.256,11.664,11.664,0,0,0,8.561-3.3,11.361,11.361,0,0,0,3.334-8.444,11.277,11.277,0,0,0-3.472-8.465,12.072,12.072,0,0,0-8.737-3.354A12.747,12.747,0,0,0,52.734,22a1.136,1.136,0,0,1-1-.167l-5.467-3.888a19.742,19.742,0,0,1,10.8-2.928A18.719,18.719,0,0,1,70.675,20.3,17.778,17.778,0,0,1,76.1,33.584a16.887,16.887,0,0,1-5.5,12.891A19.515,19.515,0,0,1,56.75,51.6,18.717,18.717,0,0,1,43.256,46.4ZM38.924,32.817l-5.308-.988,3.22-5.471a4.046,4.046,0,0,1,4.223-1.91l5.433,1.01L43.57,30.647a4.4,4.4,0,0,1-4.646,2.17ZM139.342,7.5a4.287,4.287,0,0,1-1.315-3.1,4.244,4.244,0,0,1,1.315-3.061A4.147,4.147,0,0,1,142.384,0a4.39,4.39,0,0,1,3.164,1.274A4.182,4.182,0,0,1,146.863,4.4a4.24,4.24,0,0,1-1.152,2.953,4.556,4.556,0,0,1-3.064,1.477c-.089.005-.177.008-.264.008A4.145,4.145,0,0,1,139.342,7.5Z" transform="translate(0)" fill="url(#linear-gradient)"/>
</svg>
